<svg xmlns="http://www.w3.org/2000/svg" fill="none" viewBox="0 0 788 941"><g fill-rule="evenodd" clip-path="url(#a)" clip-rule="evenodd"><path fill="#FAFBFB" d="M69 313v133h55V336h75v-48h-75v-61.1l118.3.3 118.2.3 7.8 2.2c32.8 9.3 48 35.2 47.9 82.3 0 61-24.3 84.7-87.4 85.7l-27.8.5V289h-56l.2 78.3.3 78.2 46 .3c70.7.4 91.6-2.3 118-15.4 86.8-43.3 88-195 2-237-28.5-13.8-22-13.4-195.8-13.4H69v133zm494.1-130.8a45345 45345 0 0 0-97.9 261.5l-.4 2.3h29.6c16.3 0 29.6-.2 29.6-.4l20-58.4 1.2-3.2h32c30 0 31.9-.1 31.4-1.8a11461 11461 0 0 1-12.2-42.4c-.5-1.6-2.2-1.8-18.5-1.8-9.8 0-17.9-.2-17.9-.4 0-.9 31-92 31.5-92.5.8-.8.5-1.9 34.6 100.4l33.4 100 28.3.3c21.8.2 28.2 0 28.2-1 0-.7-14.7-40.4-32.7-88.3L634 225l-16.7-44.5-26.6-.3-26.6-.2-.9 2.2z"/><path fill="#047CBB" d="M0 470.5V941l394.3-.2 394.2-.3.3-470.3L789 0H0v470.5zm.5.5c0 258.8.1 364.6.3 235.3V235.8C.6 106.3.5 212.2.5 471zM69 313v133h55V336h75v-48h-75v-61.1l118.3.3 118.2.3 7.8 2.2c32.8 9.3 48 35.2 47.9 82.3 0 61-24.3 84.7-87.4 85.7l-27.8.5V289h-56l.2 78.3.3 78.2 46 .3c70.7.4 91.6-2.3 118-15.4 86.8-43.3 88-195 2-237-28.5-13.8-22-13.4-195.8-13.4H69v133zm494.1-130.8a45345 45345 0 0 0-97.9 261.5l-.4 2.3h29.6c16.3 0 29.6-.2 29.6-.4l20-58.4 1.2-3.2h32c30 0 31.9-.1 31.4-1.8a11461 11461 0 0 1-12.2-42.4c-.5-1.6-2.2-1.8-18.5-1.8-9.8 0-17.9-.2-17.9-.4 0-.9 31-92 31.5-92.5.8-.8.5-1.9 34.6 100.4l33.4 100 28.3.3c21.8.2 28.2 0 28.2-1 0-.7-14.7-40.4-32.7-88.3L634 225l-16.7-44.5-26.6-.3-26.6-.2-.9 2.2z"/></g><defs><clipPath id="a"><path fill="#fff" d="M0 0h788v941H0z"/></clipPath></defs></svg>