<svg clip-rule="evenodd" fill-rule="evenodd" stroke-linejoin="round" stroke-miterlimit="2" viewBox="0 0 24 24" xmlns="http://www.w3.org/2000/svg"><g fill-rule="nonzero" transform="translate(-101.557 -1.44)"><path d="m125.549 13.44c0-6.625-5.371-11.987-11.996-11.987s-11.996 5.371-11.996 11.987z" fill="#2e2e2e"/><path d="m101.566 13.432c0 6.624 5.371 11.995 11.996 11.995 6.624 0 11.995-5.371 11.995-11.995zm4.498 0v-3.745s0-2.999 2.245-2.999 2.245 2.999 2.245 2.999v3.745z" fill="#c3c3c3"/><path d="m110.563 13.432v3.744s0 2.999-2.245 2.999-2.245-2.999-2.245-2.999v-3.744z" fill="#fff"/><path d="m111.308 13.432v-3.745s0-2.999 2.245-2.999 2.245 2.999 2.245 2.999v3.745z" fill="#c3c3c3"/><path d="m115.807 13.432v3.744s0 2.999-2.245 2.999-2.245-2.999-2.245-2.999v-3.744z" fill="#fff"/><path d="m116.552 13.432v-3.745s0-2.999 2.245-2.999 2.245 2.999 2.245 2.999v3.745z" fill="#c3c3c3"/><path d="m121.05 13.432v3.744s0 2.999-2.244 2.999c-2.245 0-2.245-2.999-2.245-2.999v-3.744z" fill="#fff"/></g></svg>