<svg xmlns="http://www.w3.org/2000/svg" viewBox="0 0 3100 689">
  <path fill="#ffffff" fill-rule="evenodd" d="M2814.9 1.5c-3.3 1.8-5.6 5.3-6.8 10.4-3.6 16 14.5 29.3 25.7 18.9 8-7.6 6.7-22.2-2.7-28.5-4-2.7-12-3-16.2-.8m16 39.8a27.4 27.4 0 0 0-12.9 23.3 30 30 0 0 0 15.5 25.5c15.2 7 32.5-5.6 32.5-23.7 0-11.3-4.4-19.3-13.3-24.4a23 23 0 0 0-21.8-.7m31.5 51.7c-1.8.6-5.4 2.5-8 4.2-19.7 13.2-19 47.6 1.3 59.5 3.2 1.8 6.4 2.7 11.2 3 5.9.5 7.6.2 12.8-2.2 25.5-11.4 28-49 4.2-62a33 33 0 0 0-21.5-2.5m213.8 3.1c-12.1 6-13.1 23.7-1.6 28.5 8.7 3.6 19.6-.4 24-8.8 2.2-4.2 1.8-13-.7-16.2-4.6-6-13.8-7.4-21.7-3.5m-45.6 16c-19.2 7.4-24.3 33.5-8.7 44.4 3.6 2.5 5.4 3 11.7 3.3 6.5.4 8.1 0 12.9-2.2 7-3.5 14-11.2 16-17.9 1.9-6.3 1.9-8 0-14.4-3.7-12.5-18.4-18.6-32-13.3m-60.2 21c-22.4 7.3-31.9 38-16.8 54.8 8.7 9.7 21.5 11.9 34 5.7 20.6-10 28.2-36.8 14.9-52.4a29.7 29.7 0 0 0-32-8m-70.6 21.4a41 41 0 0 0-22.2 21.5c-3 6.1-3.1 7.2-3.1 18.5 0 10.9.2 12.5 2.6 17.6 3 6.5 8.2 12 14.2 15.1 3.4 1.9 5.8 2.3 12.7 2.3 7.4 0 9.3-.4 14.2-2.9 15.7-8 26-26.3 24.5-43.4a32.5 32.5 0 0 0-18-27.2 23 23 0 0 0-13.6-3c-4.2.1-9.3.8-11.3 1.5m131.7 15.4a16 16 0 0 0-10.6 8.2c-5 9.9.8 19.3 11.7 19.1 9.7-.1 17.6-8.9 16-17.7-.7-3.3-6.4-9.5-8.9-9.5a22 22 0 0 1-3.2-.4c-1.1-.3-3.4-.1-5 .3M2839 187a24 24 0 0 0-13.9 7.5c-14.7 13.7-15.3 41-1.3 53.7 15.8 14.3 40.8.5 45.3-25a38 38 0 0 0-3.1-22.2c-5-9.8-17-16-27-14m154.8 8.4c-17 4.7-23.6 26.7-11.3 37.5 7 6 15.8 6.5 25.1 1.1 12-6.8 16.2-22.4 8.7-31.8a21 21 0 0 0-22.5-6.8m-54.3 18.9a31.6 31.6 0 0 0-19 38.8c7.8 23 39 20.5 50.2-3.8 2.1-4.6 2.5-6.6 2.1-13.3-.3-6.8-.7-8.4-3.3-12.1a37 37 0 0 0-7.4-7.4c-3.7-2.6-5.2-3-12-3.2a36 36 0 0 0-10.6 1M2788.2 228c-5 1.5-11.6 8.7-14.2 15.5a27.2 27.2 0 0 0-1.8 13.5c1 16 9.7 24.8 22.4 22.5 5-1 12.5-8.2 15.5-14.9a34.3 34.3 0 0 0-.2-26.2c-4.3-8.5-13.5-12.9-21.7-10.4m90.6 4.8c-14.2 5.6-22.6 20-21.6 37 .5 8.8 3 15 8.2 20.3 10.6 11 28.2 9.5 40.2-3.4 7-7.4 9.8-14.5 10.2-25.1.4-8.3.2-9.2-2.8-15.4a27.2 27.2 0 0 0-15.3-14 31.9 31.9 0 0 0-19 .6m-55 28.6a26.3 26.3 0 0 0-14.7 14c-3.2 6.2-3.5 7.5-3.5 15.4 0 12.6 4.1 20.8 12.7 25.2 9 4.6 21.2.7 28.3-8.9 16.5-22.5.8-54.2-22.9-45.7m-69.7 16.4c-9.7 10.3-5.6 30.1 6.3 30.1 3.3 0 4.7-.7 7.8-3.8 6-6 7.6-15 4-22.8-2.3-5.2-5.4-7.4-10.4-7.4-3.3 0-4.5.7-7.7 4m200 9.3a31.6 31.6 0 0 0-14 9.8c-9.2 11.7-9.1 29.3.2 36 4.5 3.2 13.5 3.3 19.5.2a42 42 0 0 0 15.8-18c3.7-10.7 1.1-22-6-26.4a20 20 0 0 0-15.5-1.6m-172.6 9.8c-7.2 3.6-11.5 11.6-11.6 21.9-.2 23 21.8 29.6 32 9.6a23 23 0 0 0 2.7-12.6c.1-9.6-3-15.7-9.7-18.9-5.4-2.6-8.1-2.6-13.4 0M946 328v27h32v-54h-32v27m299 0v27h32v-54h-32v27m624 127.5V610h58V484l85.3-.2 85.2-.3v-56l-85.3-.3-85.2-.2v-69l93.8-.2 93.7-.3v-56l-122.8-.3-122.7-.2v154.5m288-.1V610h52.3c55.6 0 74.8-.9 91.5-4.1a132 132 0 0 0 70.3-38.9 158.4 158.4 0 0 0 28.2-183.4c-22.9-45.7-56.1-68.4-113.3-77.5-21.3-3.4-35-4.2-82.8-4.8l-46.2-.6v154.7m317.8-1.7-64.4 154.6c-.6 1.6 1.2 1.7 31.6 1.5l32.3-.3 17-39.8 17-39.7 54 .2 53.9.3 16.6 39.8 16.7 39.7h32.2c28 0 32.2-.2 31.7-1.5l-64.9-154.2-64.3-152.8-22.8-.3-22.9-.2-63.7 152.7m278.2-121c-6.6 6.7-6.5 18.2.2 23.8 3.7 3.1 7.7 2.9 11.6-.8 9.1-8.3 5.5-26.7-5.1-26.7-2 0-4 1.1-6.7 3.8m203.6 8.5c-7.6 4.7-12 14.9-9.6 22.2 3.8 11.6 20.6 7.2 26.5-7 2.7-6.3 1.1-14-3.4-16.5-3.3-1.7-9.4-1.1-13.5 1.3m-215.4 16.4c-1.8.7-4.2 5.7-4.2 8.7 0 8.5 7.9 11.6 11.5 4.6 3.8-7.4-.9-16-7.3-13.3m-526.2 98v97.6l23.8-.6c31.3-.7 48.8-3.6 66.4-10.8a90.2 90.2 0 0 0 51-62.6c3.3-13.2 3-34-.6-47.8a96.3 96.3 0 0 0-42.6-58.8c-16.3-9.2-46.8-14.7-82.3-14.7H2215v97.6m-790.5-83.5a121.3 121.3 0 0 0-104.2 126.4c.5 18 2.8 29.2 9 43.6 11 25.3 33.8 49.2 58.2 61a116 116 0 0 0 116.6-8.1c8.6-5.8 26.5-23.9 32.1-32.5a126 126 0 0 0 21.5-65.5 117.5 117.5 0 0 0-35.6-90 116 116 0 0 0-97.6-34.9m-1319.4 5c-28.9 3.6-57 18-70.5 36l-4.6 6.1V381H0v308h31V567.6l3.5 5.8c13 21.6 37.3 36.2 67.5 40.7a135 135 0 0 0 55-5.3 127.9 127.9 0 0 0 62.8-46.1 121 121 0 0 0 7.7-122.2c-10.8-22-40.1-47-67-57a129.8 129.8 0 0 0-55.4-6.5m259.9.5c-22 3.5-38.8 13.8-48.4 30l-3.6 5.9V381h-30v229h32l.3-75.3c.3-81.5.2-80 6-91.2 5.5-11 19-23.7 31.2-29.5 6.7-3.2 17.5-6 23.3-6h3.2v-32l-2.8.1c-1.5 0-6.5.7-11.2 1.4m137-.5c-31.4 4-61 21-79.7 45.9a116.6 116.6 0 0 0-24 68.1 118.3 118.3 0 0 0 90.5 120.8 84.7 84.7 0 0 0 28.1 2.6c17.1 0 19.3-.2 28.5-2.8 26-7 50.9-24 67-45.5 5.7-7.6 14.2-23 16-28.9l.6-2.2h-33l-3.1 5.9c-12.1 22.7-38.7 39.5-68 43a89.2 89.2 0 0 1-88.6-50.2 92 92 0 0 1-6.4-23.9V507h206l-.6-8.8c-2.5-39.8-12.1-63.9-34.4-86.2a117.5 117.5 0 0 0-59.2-33.1A148 148 0 0 0 502 377m274.4 0a130.6 130.6 0 0 0-54.4 20.4c-12.7 8.5-20.8 16-29 26.7a116.2 116.2 0 0 0-24.2 83C675.3 569.7 727.4 615 793 615a117 117 0 0 0 87.7-37.3c9.8-10.3 23.2-30.3 23.2-34.7 0-.6-6-1-17.3-1h-17.2l-5.9 7.5a91.8 91.8 0 0 1-47.2 31.9c-36.1 9.3-74.5-2.5-96.4-29.7-6.4-8-14.4-23.9-17.2-34.2a76.2 76.2 0 0 1-2.1-22.5c0-12.8.3-15.5 2.7-23.3a84.6 84.6 0 0 1 21-36.6 94 94 0 0 1 95.4-23.7 92.4 92.4 0 0 1 45.8 34l3.7 5.6H905l-1.5-3.8a118.5 118.5 0 0 0-38.2-47.4c-13-9.6-33-18.1-49.7-21.3-10.2-2-30-2.7-39.1-1.4m324.3 0a79.4 79.4 0 0 0-48.3 24 53.3 53.3 0 0 0-15.5 39.4 52 52 0 0 0 14 36.8c10.1 11 22.7 17.6 46.7 24.3 29.6 8.2 36.5 10.8 46.1 17.7a34.3 34.3 0 0 1 6 49.1 46.8 46.8 0 0 1-30.4 15.6c-26 4.2-53.3-14-55.2-36.8l-.4-5.2H1027v6.1c0 19.5 12.5 39.8 32.7 53a95.4 95.4 0 0 0 68 12.4c36.7-6.4 61.5-29.1 66.3-61a55 55 0 0 0-20-53.9c-12-9.4-24.3-14.8-53.2-23.1-29.4-8.5-39.4-14-44.4-25-3.3-7-3.3-17 0-24a36 36 0 0 1 17.1-16.2c10.9-5 29-4.2 40.7 1.8a30.6 30.6 0 0 1 16.5 22.4l.6 4.5h36.7v-3.3c0-5-2.7-14.5-6.2-21.7-2.2-4.6-5.7-9-11.8-15.1-7.5-7.5-10-9.3-19-13.7-5.8-2.8-13.6-5.8-17.3-6.7-8.2-2-25-2.7-32.9-1.5m587 0a84.7 84.7 0 0 0-54.5 33.5l-2.2 3v-16.3l-.1-16.2h-30v229h30.8l.5-71.3c.6-80.4.7-81.9 7.8-96.4a64.8 64.8 0 0 1 59.9-34.8 64 64 0 0 1 35.5 8.3 69.6 69.6 0 0 1 27.3 28.3c7.8 16 7.5 12.7 8 93.6l.3 72.3h31.9v-67c0-40-.4-71-1-76.8-3.6-32.6-17.5-55.8-43.6-72.9a102.7 102.7 0 0 0-53.4-16.8c-6.3-.2-14 0-17.2.5m1062.2-.3c-.8.3-3 2-4.7 3.6-7 6.7-6.4 20.4 1.5 28.6 6.7 7 15.8 7.3 21.9.7 8.6-9.3 5.6-25.7-5.7-31.7a20 20 0 0 0-13-1.2m205.9 1a12.8 12.8 0 0 0-5.9 11c0 4.5 1.4 6.3 4.8 6.3 6.8 0 13.4-8.7 11.1-14.6-1.7-4.7-5.3-5.7-10-2.7M946 495.5V610h32V381h-32v114.5m299 0V610h32V381h-32v114.5m1316-111.4-15.5 44.4c-8.5 24.2-15.5 44.3-15.5 44.7 0 .5 14.2.8 31.5.8s31.5-.2 31.5-.4c0-1.2-31.8-90.4-32-89.5m380 18.7c-3 2.4-3.2 7.9-.5 9.8 2.2 1.7 6.9 1.8 9.6.3 4-2.1 4.4-8.6.5-11.1-2-1.4-7.4-.8-9.7 1m-1512.4.3a89.5 89.5 0 0 0-74.7 69.6 102 102 0 0 0 0 42.6 89.8 89.8 0 0 0 64 66 107 107 0 0 0 42.2.3c40-11 66-46.6 66-90.1a88.4 88.4 0 0 0-97.5-88.4m-1326.9 5.5A87.4 87.4 0 0 0 32 472.5a115 115 0 0 0 0 45.7 79 79 0 0 0 23.7 40.9c8 7.6 13.3 11.3 22.9 16.2a92 92 0 0 0 112-25.3 86.4 86.4 0 0 0 16.1-34.5c2.6-10.3 2.3-30.4-.5-41-9-34-36-59.6-70-66-9-1.8-25.3-1.8-34.5 0m398.5 0a91.6 91.6 0 0 0-61.5 45.6c-4.2 7.9-9.4 22.5-8.4 23.5.3.2 39.4.3 87 .2l86.6-.3-2.7-8.7c-9-28-32.5-50.6-61.1-58.8-9.8-2.9-30.5-3.6-39.9-1.5m2417.8 7.4c-3.3 3.3-3.9 4.5-3.9 8 0 3.4.6 4.9 3 7.3 2.8 2.8 3.6 3 8 2.6 9.6-1 15.9-9 12.5-16.1-2-4.1-5-5.7-11.2-5.7-4 0-5 .5-8.4 3.9m-150 1c-7.9 4.3-11.9 12-11.9 22.8 0 10.4 5 20.2 12.3 24 3.9 2 11.5 2 15.3 0 16.2-8.5 18.4-35 3.7-45.1-5.6-3.9-14-4.6-19.5-1.6m122.8 8.2a26 26 0 0 0-14.4 14.7c-3.9 12.8 5.8 22.6 18.8 19.2 20.8-5.5 23.5-32 3.5-34.5a24 24 0 0 0-8 .6m-42.5 17.7a29.2 29.2 0 0 0-19.7 24.5c-1 9.8 2.7 17.3 10.1 20.7 7.9 3.6 16.5 1.5 24.7-6 16.3-14.5 12-38.2-7.2-39.6-3-.3-6.5 0-8 .4m-52.5 19c-10.2 4.6-16.4 14.4-17.2 27.1-1 16.9 6.9 28 19.9 28 7 0 12.6-2.8 18.8-9.6 17.1-18.7 9.5-47.5-12.6-47.4-2.6 0-6.6.9-8.9 1.9m89 9c-4 2.4-5.4 5-5.4 9 0 4.6 3 7.1 8.5 7.1 8.6 0 14.2-8.7 9.3-14.4a9.6 9.6 0 0 0-12.5-1.7m-135.8 17.4a22.7 22.7 0 0 0-6.9 7c-2.5 4.1-3 6.1-3.4 13.3-.5 9.9.8 15.8 5 21.5 4.9 6.7 11.7 8.5 18.9 4.9 8-4.2 13.6-16 12.7-27.5-1.4-16.3-14.4-26-26.3-19.2m108 5.2c-9.3 4.4-13.2 14.5-8.5 22.2 7.2 11.9 30.2 0 27.6-14.1-1.4-7.6-11.2-11.8-19.1-8.1m-36.5 19c-13.6 6-18.3 24.7-8.5 33.4 3 2.7 4.3 3.1 9 3.1 20 0 31-27.2 14.5-35.8-5.1-2.5-10-2.8-15-.6m-38.1 13.8a21 21 0 0 0-12.4 10.8c-2.6 4.6-3 6.3-3 13.3 0 9.4 2 14.2 7.2 18.2 12 9.1 31.3-6 31.3-24.4 0-7.5-6.4-16.5-13-18.3-4.5-1.3-5.7-1.2-10.1.4m-63.9 2c-2.8 3.1-3.8 11.5-2 17 4.8 14.6 18 11.7 18-4 0-11.8-9.7-19.6-16-13m25 17.4a16 16 0 0 0-6.3 7.3c-2.5 4.8-2.8 6.2-2.4 12.4 1.2 20.8 18.2 26.8 27 9.6 5.6-11.1 2.7-24.2-6.3-28.9-5.4-2.7-7.5-2.8-12-.4m91.2 7.8c-10.8 5.4-17 19-12.7 27.3 6.2 12 32.5-4 32.5-20 0-3.2-.6-4.7-3-7-3.8-3.8-9.5-4-16.8-.3m-116.8 11.9c-3.4 2.3-4.7 6.8-4.2 14.5 1.1 15.6 12.6 21.8 18.6 10 6.6-13.1-4.3-31.7-14.4-24.5m123.5 19.3c-5.8 3.7-9.8 10.8-8.3 14.9 1.8 5.2 9 4.3 16.3-2.3 5.6-5 7.9-10 6.1-13.4-1.7-3.1-8.4-2.7-14 .8"/>
</svg>
